Coordinates
version=1
nRows=29
nColumns=24
inDegrees=yes

Units are S.I. units (second, meters, Newtons, ...)
Angles are in degrees.

endheader
time	pelvis_tilt	pelvis_list	pelvis_rotation	pelvis_tx	pelvis_ty	pelvis_tz	hip_flexion_r	hip_adduction_r	hip_rotation_r	knee_angle_r	ankle_angle_r	subtalar_angle_r	mtp_angle_r	hip_flexion_l	hip_adduction_l	hip_rotation_l	knee_angle_l	ankle_angle_l	subtalar_angle_l	mtp_angle_l	lumbar_extension	lumbar_bending	lumbar_rotation
      0.47900000	      2.99281313	      2.73262059	     -3.63832100	     -0.88278004	      0.98925811	      0.28242553	     18.79510418	     -2.56635906	     -3.06330532	      3.23448687	     -0.11231090	     -3.88499773	      0.48762835	    -23.97688361	      7.12837095	      8.27503957	      2.81760486	     10.36086761	    -13.46454863	     -1.33960130	    -14.63159107	      6.01638634	     -8.89116809
      0.48316667	      2.89071316	      2.63458721	     -3.59029780	     -0.87721588	      0.98827133	      0.28281965	     18.84659753	     -2.42421888	     -2.63481776	      3.22566257	     -0.43494454	     -4.24339002	      0.64893508	    -24.00722289	      7.00802690	      8.15780293	      2.36142552	     10.72009134	    -13.11438059	     -1.75852892	    -14.49020252	      6.21565651	     -9.17724446
      0.48733333	      2.88974791	      2.53628580	     -3.57466740	     -0.87169933	      0.98745617	      0.28321822	     18.83992023	     -2.28748233	     -2.28123227	      3.05854043	     -0.75364673	     -4.41124295	      2.86260346	    -24.12883978	      6.91126181	      8.03208817	      1.86456339	     11.17894554	    -12.74036552	     -6.66814275	    -14.52122330	      6.34774805	     -9.08471628
      0.49150000	      2.82631762	      2.40332594	     -3.53179698	     -0.86607704	      0.98663513	      0.28361001	     18.87040319	     -2.11582420	     -1.88444366	      2.86033484	     -1.16620879	     -4.74980541	      2.88394861	    -24.17805960	      6.76308056	      7.92868741	      1.35918852	     11.47595417	    -12.47603585	     -6.63316693	    -14.44970628	      6.55196299	     -9.11125747
      0.49566667	      2.77714575	      2.24488020	     -3.50216193	     -0.86044309	      0.98588380	      0.28403905	     18.90261361	     -1.91378791	     -1.49032115	      2.56160467	     -1.58962104	     -5.08804545	      2.90998850	    -24.22577462	      6.59484735	      7.79323900	      0.81895414	     11.78050298	    -12.17885868	     -6.58423244	    -14.41439038	      6.76484745	     -9.08653708
      0.49983333	      2.73612106	      2.07533390	     -3.47546930	     -0.85478420	      0.98518840	      0.28448245	     18.92592920	     -1.69996484	     -1.06999476	      2.20780659	     -2.05606156	     -5.49648477	      2.94601389	    -24.25256193	      6.41943361	      7.60797676	      0.21010949	     12.10017815	    -11.83307357	     -6.51247889	    -14.37515559	      7.01055468	     -9.06436145
      0.50400000	      2.68265491	      1.87730056	     -3.45734309	     -0.84905963	      0.98452858	      0.28494792	     18.97339858	     -1.45144955	     -0.66941677	      1.77379259	     -2.55601795	     -5.92401817	      2.99143076	    -24.25748726	      6.21875810	      7.39387321	     -0.42601215	     12.41300502	    -11.47427031	     -6.41086976	    -14.32922610	      7.27606549	     -9.02281498
      0.50816667	      2.60953483	      1.66782228	     -3.43471669	     -0.84331373	      0.98389491	      0.28542331	     19.06208294	     -1.18863801	     -0.31332597	      1.25488947	     -3.10877731	     -6.36959267	      3.02541851	    -24.24059047	      6.00281759	      7.23317382	     -1.05964508	     12.66478615	    -11.17897282	     -6.31487913	    -14.24873432	      7.55895266	     -8.97257091
      0.51233333	      2.55793401	      1.43396552	     -3.42828226	     -0.83752705	      0.98333714	      0.28594947	     19.12677278	     -0.89379198	      0.05723786	      0.69641381	     -3.67170821	     -6.86455934	      3.06200941	    -24.21963345	      5.76976162	      6.98748540	     -1.75054347	     12.92661387	    -10.82300687	     -6.19043132	    -14.21115804	      7.85661689	     -8.90646591
      0.51650000	      2.48433439	      1.20557417	     -3.42312299	     -0.83172186	      0.98279692	      0.28648404	     19.23796814	     -0.60147900	      0.39242345	      0.06092052	     -4.22023345	     -7.34983722	      3.09756560	    -24.15432935	      5.54396890	      6.75077954	     -2.48726768	     13.15304007	    -10.50816740	     -6.04521987	    -14.12179846	      8.17017185	     -8.83528264
      0.52066667	      2.41968587	      0.94444246	     -3.42199175	     -0.82587556	      0.98230491	      0.28704466	     19.34258221	     -0.27182260	      0.70042382	     -0.61430688	     -4.77970897	     -7.86102521	      3.13020348	    -24.08897297	      5.28649246	      6.47328206	     -3.25487845	     13.37120153	    -10.16469932	     -5.87362816	    -14.05399708	      8.51411551	     -8.75374506
      0.52483333	      2.33836458	      0.68165113	     -3.43416572	     -0.81999712	      0.98183786	      0.28765902	     19.48602116	      0.06836860	      0.98246189	     -1.35663387	     -5.31305238	     -8.35472279	      3.15767753	    -23.99312731	      5.03005745	      6.20060769	     -4.04049734	     13.52658211	     -9.85521669	     -5.67970405	    -13.97685122	      8.83995555	     -8.65924298
      0.52900000	      2.27027660	      0.40989179	     -3.44552783	     -0.81412580	      0.98143016	      0.28827943	     19.62460861	      0.41745796	      1.23946996	     -2.13666711	     -5.81013334	     -8.85904515	      3.18247288	    -23.88986090	      4.76578451	      5.90771092	     -4.87134941	     13.66819823	     -9.54022483	     -5.43936467	    -13.90822421	      9.19085091	     -8.55962136
      0.53316667	      2.19088950	      0.12605259	     -3.46748403	     -0.80819261	      0.98104484	      0.28893225	     19.78698254	      0.78496698	      1.45625695	     -2.96605991	     -6.24820106	     -9.33482729	      3.19987407	    -23.76408393	      4.49286401	      5.60425029	     -5.72754934	     13.75707635	     -9.27211507	     -5.16901199	    -13.81577965	      9.55963417	     -8.44852151
      0.53733333	      2.09742719	     -0.16381083	     -3.49838583	     -0.80224593	      0.98068416	      0.28963759	     19.97703249	      1.16580788	      1.65259228	     -3.83591818	     -6.66414701	     -9.80766347	      3.20646710	    -23.61415967	      4.21322121	      5.29321070	     -6.59642473	     13.78749942	     -9.02559457	     -4.88220119	    -13.72409401	      9.90995620	     -8.33333576
      0.54150000	      2.00910933	     -0.45957587	     -3.53170409	     -0.79627599	      0.98036655	      0.29035659	     20.16787784	      1.55351937	      1.82314468	     -4.73782496	     -6.98959738	    -10.25375278	      3.20436885	    -23.45135684	      3.92983668	      4.98961560	     -7.50599830	     13.77298355	     -8.80929230	     -4.55831093	    -13.62892121	     10.27842685	     -8.21280779
      0.54566667	      1.98840632	     -0.79782721	     -3.54790055	     -0.79030160	      0.98018754	      0.29108408	     20.26814396	      1.97679201	      1.94453909	     -5.62466472	     -7.22531438	    -10.67995720	      3.17751791	    -23.31535057	      3.59121815	      4.56822954	     -8.51286352	     13.82212237	     -8.39961448	     -3.60159355	    -13.63032515	     10.70324425	     -8.10668367
      0.54983333	      1.85310567	     -1.05876503	     -3.60561759	     -0.78431997	      0.97988785	      0.29186439	     20.55157728	      2.34165931	      2.07695378	     -6.63367825	     -7.40390665	    -11.05725116	      3.15658792	    -23.09467210	      3.35693376	      4.39246774	     -9.41365982	     13.57849477	     -8.49063893	     -3.32559868	    -13.47538962	     11.01574281	     -7.97247448
      0.55400000	      1.84484807	     -1.42267019	     -3.66374096	     -0.77829350	      0.97978658	      0.29269381	     20.64976646	      2.80728487	      2.18400284	     -7.57295162	     -7.51194958	    -11.40302190	      3.00006045	    -22.94878747	      2.99871284	      3.87334390	    -10.46564372	     13.52410166	     -8.04222141	     -1.63315189	    -13.48217821	     11.47602080	     -7.87791472
      0.55816667	      1.73082649	     -1.67616132	     -3.68947102	     -0.77230986	      0.97960461	      0.29346279	     20.90878531	      3.15471226	      2.25753433	     -8.61257391	     -7.44107363	    -11.75076556	      2.47720612	    -22.69867059	      2.76112624	      3.75716235	    -11.45126769	     13.08515787	     -8.26337635	      2.33739607	    -13.35155546	     11.78059816	     -7.74158890
      0.56233333	      1.68494132	     -1.99593640	     -3.73519237	     -0.76625226	      0.97957062	      0.29426570	     21.05235947	      3.57226638	      2.33145500	     -9.58764343	     -7.35357622	    -12.05186567	      2.46974697	    -22.52413753	      2.46536931	      3.55533628	    -12.44676670	     12.69044434	     -8.37658902	      2.35940002	    -13.30113546	     12.19306651	     -7.63116835
      0.56650000	      1.58224120	     -2.27071719	     -3.77843700	     -0.76025828	      0.97948405	      0.29513244	     21.27048831	      3.95252047	      2.41861955	    -10.58856474	     -7.18842395	    -12.34198705	      2.44199192	    -22.19689998	      2.19306579	      3.24531588	    -13.61348756	     12.34259555	     -8.31859437	      2.46645745	    -13.19518296	     12.49050532	     -7.49012384
      0.57066667	      1.52509930	     -2.56096767	     -3.81086882	     -0.75424348	      0.97949391	      0.29596488	     21.44306323	      4.33847713	      2.43628147	    -11.61291285	     -6.94999901	    -12.58819196	      2.37470780	    -21.91177664	      1.90233949	      2.94992501	    -14.78659247	     11.96316243	     -8.20284120	      2.72691479	    -13.13067936	     12.84639512	     -7.35850794
      0.57483333	      1.52168307	     -2.86657283	     -3.84878240	     -0.74822668	      0.97962974	      0.29685063	     21.51223847	      4.74830999	      2.52520249	    -12.55921008	     -6.60550515	    -12.87772429	      1.31330237	    -21.65552264	      1.59062299	      2.60941612	    -15.98934683	     11.41938132	     -8.16520058	      6.60259112	    -13.13984640	     13.20857853	     -7.28370662
      0.57900000	      1.47080835	     -3.15016176	     -3.87638451	     -0.74218498	      0.97976278	      0.29769694	     21.62989095	      5.12691392	      2.56185568	    -13.50333234	     -6.22841698	    -13.03240927	      1.29369048	    -21.33506137	      1.30492207	      2.37866304	    -17.20876432	     10.77936438	     -8.26874990	      6.66914116	    -13.08007137	     13.54487635	     -7.15684996
      0.58316667	      1.44387893	     -3.41927077	     -3.89228786	     -0.73618092	      0.97994696	      0.29854324	     21.72437818	      5.48645244	      2.57083903	    -14.45721770	     -5.77638891	    -13.19294917	      1.24190482	    -20.99007636	      1.01898643	      2.11105148	    -18.50585446	     10.14428032	     -8.25207327	      6.85782232	    -13.04801389	     13.86748988	     -7.05430320
      0.58733333	      1.42463187	     -3.68397113	     -3.90905125	     -0.73017817	      0.98017970	      0.29940338	     21.78535664	      5.84310843	      2.59887603	    -15.36475519	     -5.27778965	    -13.32839718	      1.14905867	    -20.62343680	      0.72897769	      1.82476029	    -19.83964287	      9.43310791	     -8.23318878	      7.19518578	    -13.02761192	     14.17620852	     -6.96156635
      0.59150000	      1.45551232	     -3.96108665	     -3.90667566	     -0.72417839	      0.98054205	      0.30025473	     21.74666753	      6.20827093	      2.64674936	    -16.18650320	     -4.72268806	    -13.48326656	     -0.16763982	    -20.28754611	      0.41664962	      1.55644393	    -21.18442717	      8.51941852	     -8.31924739	     11.64943607	    -13.05881266	     14.50694829	     -6.91913974
      0.59566667	      1.48193192	     -4.24479297	     -3.90619937	     -0.71817185	      0.98094191	      0.30112152	     21.67970161	      6.58305538	      2.70609285	    -16.93881237	     -4.21939103	    -13.66485871	     -0.17426288	    -19.92107593	      0.08927009	      1.27527864	    -22.57086040	      7.61143971	     -8.34218533	     11.67464003	    -13.09436906	     14.82957020	     -6.83642422
